<svg width="99" height="93" viewBox="0 0 99 93" xmlns="http://www.w3.org/2000/svg"><path d="M87.3 0H11C4.9 0 0 5.85 0 13.14v48.13C0 68.55 4.9 74.4 11 74.4h16.7c1.2 0 2.4.48 3.4 1.44l14.6 14.93a4.52 4.52 0 0 0 6.6 0l14.6-14.93c.9-.96 2.1-1.44 3.4-1.44h17.1c6.1 0 11-5.85 11-13.13V13.14C98.3 5.85 93.4 0 87.3 0zM66.4 37.62c-.6 2.15-1.9 4.06-3.4 5.37L49 55.53 35 43a12 12 0 0 1-3.4-5.37c-2.6-8.96 5-19.23 13.4-14.8l.6.35 3.4 2.15 3.4-2.15.6-.36c8.4-4.42 15.9 5.85 13.4 14.81v-.01z" fill="#A43CFB"/></svg>
